# xmcd CD database file
#
# Track frame offsets:
#	150
#	14472
#	25355
#	42865
#	58407
#	71305
#	80897
#	95510
#	110567
#	127765
#	144397
#	156435
#
# Disc length: 2359 seconds
#
# Revision: 5
# Processed by: cddbd v1.5.2PL0 Copyright (c) Steve Scherf et al.
# Submitted via: CDex 1.51
#
DISCID=a509350c
DTITLE=Johnny Shines with Big Walter Horton - Johnny Shines with Big Walter Horton
DYEAR=1966
DGENRE=Blues
TTITLE0=Hello Central
TTITLE1=You Don't Have To Go
TTITLE2=Sneakin' And Hidin'
TTITLE3=Till I Made My Tonsils Sore
TTITLE4=Fat Mama
TTITLE5=G.B. Blues
TTITLE6=Worried Life Blues
TTITLE7=I Cry, I Cry
TTITLE8=If It Ain't Me
TTITLE9=I Want To Warn You
TTITLE10=I Cry, I Cry (Alternative Take)
TTITLE11=Sneakin' And Hidin' Part 2
EXTD=TCD 5015\n\nSubmitted 6/27/97\n[Jmccoy@efn.org] YEAR: 1966
EXTT0=
EXTT1=
EXTT2=
EXTT3=
EXTT4=
EXTT5=
EXTT6=
EXTT7=
EXTT8=
EXTT9=
EXTT10=
EXTT11=
PLAYORDER=
